<?xml version="1.0" encoding="UTF-8"?>
<svg xmlns="http://www.w3.org/2000/svg" xmlns:xlink="http://www.w3.org/1999/xlink" width="200pt" height="264pt" viewBox="0 0 200 264" version="1.1">
<defs>
<filter id="alpha" filterUnits="objectBoundingBox" x="0%" y="0%" width="100%" height="100%">
  <feColorMatrix type="matrix" in="SourceGraphic" values="0 0 0 0 1 0 0 0 0 1 0 0 0 0 1 0 0 0 1 0"/>
</filter>
<mask id="mask0">
  <g filter="url(#alpha)">
<rect x="0" y="0" width="200" height="264" style="fill:rgb(0%,0%,0%);fill-opacity:0.101961;stroke:none;"/>
  </g>
</mask>
<clipPath id="clip1">
  <rect x="0" y="0" width="200" height="264"/>
</clipPath>
<g id="surface5" clip-path="url(#clip1)">
<path style=" stroke:none;fill-rule:nonzero;fill:rgb(100%,100%,100%);fill-opacity:1;" d="M 127.492188 260.605469 L 119.929688 260.605469 L 120.308594 0 L 127.492188 0 Z M 127.492188 260.605469 "/>
</g>
<mask id="mask1">
  <g filter="url(#alpha)">
<rect x="0" y="0" width="200" height="264" style="fill:rgb(0%,0%,0%);fill-opacity:0.101961;stroke:none;"/>
  </g>
</mask>
<clipPath id="clip2">
  <rect x="0" y="0" width="200" height="264"/>
</clipPath>
<g id="surface8" clip-path="url(#clip2)">
<path style=" stroke:none;fill-rule:nonzero;fill:rgb(0%,0%,0%);fill-opacity:1;" d="M 116.824219 131.269531 C 116.824219 133.976562 114.625 136.171875 111.910156 136.171875 C 109.195312 136.171875 106.996094 133.976562 106.996094 131.269531 C 106.996094 128.5625 109.195312 126.367188 111.910156 126.367188 C 114.625 126.367188 116.824219 128.5625 116.824219 131.269531 Z M 116.824219 131.269531 "/>
</g>
<mask id="mask2">
  <g filter="url(#alpha)">
<rect x="0" y="0" width="200" height="264" style="fill:rgb(0%,0%,0%);fill-opacity:0.101961;stroke:none;"/>
  </g>
</mask>
<clipPath id="clip3">
  <rect x="0" y="0" width="200" height="264"/>
</clipPath>
<g id="surface11" clip-path="url(#clip3)">
<path style="fill:none;stroke-width:2;stroke-linecap:butt;stroke-linejoin:miter;stroke:rgb(0%,0%,0%);stroke-opacity:1;stroke-miterlimit:10;" d="M 52.817344 16.105883 L 52.817344 677.151397 " transform="matrix(0.378072,0,0,0.377143,0,0)"/>
</g>
<mask id="mask3">
  <g filter="url(#alpha)">
<rect x="0" y="0" width="200" height="264" style="fill:rgb(0%,0%,0%);fill-opacity:0.101961;stroke:none;"/>
  </g>
</mask>
<clipPath id="clip4">
  <rect x="0" y="0" width="200" height="264"/>
</clipPath>
<g id="surface14" clip-path="url(#clip4)">
<path style="fill:none;stroke-width:2;stroke-linecap:butt;stroke-linejoin:miter;stroke:rgb(0%,0%,0%);stroke-opacity:1;stroke-miterlimit:10;" d="M 109.81916 12.107895 L 109.81916 679.160748 " transform="matrix(0.378072,0,0,0.377143,0,0)"/>
</g>
<mask id="mask4">
  <g filter="url(#alpha)">
<rect x="0" y="0" width="200" height="264" style="fill:rgb(0%,0%,0%);fill-opacity:0.101961;stroke:none;"/>
  </g>
</mask>
<clipPath id="clip5">
  <rect x="0" y="0" width="200" height="264"/>
</clipPath>
<g id="surface17" clip-path="url(#clip5)">
<path style="fill:none;stroke-width:2;stroke-linecap:butt;stroke-linejoin:miter;stroke:rgb(0%,0%,0%);stroke-opacity:1;stroke-miterlimit:10;" d="M 166.820977 9.104226 L 166.820977 683.003374 " transform="matrix(0.378072,0,0,0.377143,0,0)"/>
</g>
<mask id="mask5">
  <g filter="url(#alpha)">
<rect x="0" y="0" width="200" height="264" style="fill:rgb(0%,0%,0%);fill-opacity:0.101961;stroke:none;"/>
  </g>
</mask>
<clipPath id="clip6">
  <rect x="0" y="0" width="200" height="264"/>
</clipPath>
<g id="surface20" clip-path="url(#clip6)">
<path style="fill:none;stroke-width:2;stroke-linecap:butt;stroke-linejoin:miter;stroke:rgb(0%,0%,0%);stroke-opacity:1;stroke-miterlimit:10;" d="M 223.822793 6.110914 L 223.822793 687.156723 " transform="matrix(0.378072,0,0,0.377143,0,0)"/>
</g>
<mask id="mask6">
  <g filter="url(#alpha)">
<rect x="0" y="0" width="200" height="264" style="fill:rgb(0%,0%,0%);fill-opacity:0.101961;stroke:none;"/>
  </g>
</mask>
<clipPath id="clip7">
  <rect x="0" y="0" width="200" height="264"/>
</clipPath>
<g id="surface23" clip-path="url(#clip7)">
<path style="fill:none;stroke-width:2;stroke-linecap:butt;stroke-linejoin:miter;stroke:rgb(0%,0%,0%);stroke-opacity:1;stroke-miterlimit:10;" d="M 280.814277 3.107244 L 280.814277 687.995679 " transform="matrix(0.378072,0,0,0.377143,0,0)"/>
</g>
<mask id="mask7">
  <g filter="url(#alpha)">
<rect x="0" y="0" width="200" height="264" style="fill:rgb(0%,0%,0%);fill-opacity:0.101961;stroke:none;"/>
  </g>
</mask>
<clipPath id="clip8">
  <rect x="0" y="0" width="200" height="264"/>
</clipPath>
<g id="surface26" clip-path="url(#clip8)">
<path style=" stroke:none;fill-rule:nonzero;fill:rgb(0%,0%,0%);fill-opacity:1;" d="M 151.3125 62.917969 C 151.3125 62.917969 146.394531 62.917969 145.261719 69.703125 C 144.128906 76.492188 142.992188 99.121094 142.992188 99.121094 C 142.992188 99.121094 127.113281 119.863281 129.761719 122.503906 C 132.40625 125.144531 135.433594 130.046875 137.320312 129.292969 C 139.210938 128.539062 155.46875 106.289062 155.46875 106.289062 Z M 151.3125 62.917969 "/>
</g>
<mask id="mask8">
  <g filter="url(#alpha)">
<rect x="0" y="0" width="200" height="264" style="fill:rgb(0%,0%,0%);fill-opacity:0.101961;stroke:none;"/>
  </g>
</mask>
<clipPath id="clip9">
  <rect x="0" y="0" width="200" height="264"/>
</clipPath>
<g id="surface29" clip-path="url(#clip9)">
<path style=" stroke:none;fill-rule:nonzero;fill:rgb(0%,0%,0%);fill-opacity:1;" d="M 194.410156 76.117188 L 197.8125 79.511719 C 197.8125 79.511719 200.082031 111.191406 195.546875 117.601562 C 191.007812 124.011719 170.214844 141.363281 169.082031 140.230469 C 167.945312 139.097656 160.761719 133.441406 162.273438 132.6875 C 163.789062 131.933594 183.894531 110.976562 183.894531 110.976562 L 182.3125 81.773438 Z M 194.410156 76.117188 "/>
</g>
</defs>
<g id="surface1">
<path style=" stroke:none;fill-rule:nonzero;fill:rgb(32.54902%,32.941176%,38.039216%);fill-opacity:1;" d="M 0 6.433594 L 167.863281 6.433594 L 167.863281 254.21875 L 0 254.21875 Z M 0 6.433594 "/>
<path style=" stroke:none;fill-rule:nonzero;fill:rgb(54.117647%,16.862745%,88.627451%);fill-opacity:1;" d="M 122.117188 260.628906 L 0 254.21875 L 0 6.433594 L 122.117188 0.0234375 Z M 122.117188 260.628906 "/>
<path style=" stroke:none;fill-rule:nonzero;fill:rgb(32.54902%,32.941176%,38.039216%);fill-opacity:1;" d="M 113.421875 142.207031 C 113.421875 143.039062 112.746094 143.714844 111.910156 143.714844 C 111.074219 143.714844 110.398438 143.039062 110.398438 142.207031 C 110.398438 141.375 111.074219 140.699219 111.910156 140.699219 C 112.746094 140.699219 113.421875 141.375 113.421875 142.207031 Z M 113.421875 142.207031 "/>
<path style=" stroke:none;fill-rule:nonzero;fill:rgb(32.54902%,32.941176%,38.039216%);fill-opacity:1;" d="M 111.910156 142.433594 L 112.957031 144.242188 L 114.003906 146.054688 L 109.8125 146.054688 L 110.859375 144.242188 Z M 111.910156 142.433594 "/>
<path style=" stroke:none;fill-rule:nonzero;fill:rgb(54.117647%,16.862745%,88.627451%);fill-opacity:1;" d="M 127.410156 260.628906 L 119.929688 260.605469 L 120.226562 0.0234375 L 127.410156 0.0234375 Z M 127.410156 260.628906 "/>
<use xlink:href="#surface5" mask="url(#mask0)"/>
<use xlink:href="#surface8" mask="url(#mask1)"/>
<path style=" stroke:none;fill-rule:nonzero;fill:rgb(32.54902%,32.941176%,38.039216%);fill-opacity:1;" d="M 116.824219 130.515625 C 116.824219 133.222656 114.625 135.417969 111.910156 135.417969 C 109.195312 135.417969 106.996094 133.222656 106.996094 130.515625 C 106.996094 127.808594 109.195312 125.613281 111.910156 125.613281 C 114.625 125.613281 116.824219 127.808594 116.824219 130.515625 Z M 116.824219 130.515625 "/>
<use xlink:href="#surface11" mask="url(#mask2)"/>
<use xlink:href="#surface14" mask="url(#mask3)"/>
<use xlink:href="#surface17" mask="url(#mask4)"/>
<use xlink:href="#surface20" mask="url(#mask5)"/>
<use xlink:href="#surface23" mask="url(#mask6)"/>
<path style=" stroke:none;fill-rule:nonzero;fill:rgb(18.431373%,18.039216%,25.490196%);fill-opacity:1;" d="M 190.0625 35.949219 C 190.0625 28.242188 183.378906 21.996094 175.128906 21.996094 C 166.882812 21.996094 160.195312 28.242188 160.195312 35.949219 C 160.195312 43.65625 166.882812 49.90625 175.128906 49.90625 C 183.378906 49.90625 190.0625 43.65625 190.0625 35.949219 Z M 190.0625 35.949219 "/>
<path style=" stroke:none;fill-rule:nonzero;fill:rgb(100%,72.156863%,72.156863%);fill-opacity:1;" d="M 131.652344 122.882812 L 127.871094 128.160156 C 127.871094 128.160156 109.722656 131.933594 116.527344 137.589844 C 123.332031 143.246094 133.164062 132.308594 133.164062 132.308594 L 138.457031 125.523438 Z M 131.652344 122.882812 "/>
<path style=" stroke:none;fill-rule:nonzero;fill:rgb(54.117647%,16.862745%,88.627451%);fill-opacity:1;" d="M 151.3125 62.917969 C 151.3125 62.917969 146.394531 62.917969 145.261719 69.703125 C 144.128906 76.492188 142.992188 99.121094 142.992188 99.121094 C 142.992188 99.121094 127.113281 119.863281 129.761719 122.503906 C 132.40625 125.144531 135.433594 130.046875 137.320312 129.292969 C 139.210938 128.539062 155.46875 106.289062 155.46875 106.289062 Z M 151.3125 62.917969 "/>
<use xlink:href="#surface26" mask="url(#mask7)"/>
<path style=" stroke:none;fill-rule:nonzero;fill:rgb(100%,72.156863%,72.156863%);fill-opacity:1;" d="M 166.433594 43.683594 C 166.433594 43.683594 166.054688 58.390625 161.519531 59.144531 C 156.980469 59.898438 158.496094 64.800781 158.496094 64.800781 C 158.496094 64.800781 173.238281 73.476562 183.070312 64.800781 L 184.960938 60.277344 C 184.960938 60.277344 178.152344 55.375 181.179688 48.585938 Z M 166.433594 43.683594 "/>
<path style=" stroke:none;fill-rule:nonzero;fill:rgb(18.431373%,18.039216%,25.490196%);fill-opacity:1;" d="M 141.101562 134.195312 C 141.101562 134.195312 118.796875 175.683594 127.113281 188.503906 C 135.433594 201.328125 147.910156 227.726562 149.796875 227.726562 C 151.6875 227.726562 162.273438 222.449219 161.519531 219.054688 C 160.761719 215.660156 149.421875 190.390625 146.394531 188.128906 C 143.371094 185.863281 144.882812 179.832031 145.261719 179.453125 C 145.640625 179.078125 158.117188 159.085938 158.117188 159.085938 C 158.117188 159.085938 157.738281 190.769531 159.25 195.671875 C 160.761719 200.574219 158.871094 235.648438 160.761719 237.15625 C 162.652344 238.664062 171.347656 241.304688 172.859375 239.042969 C 174.375 236.777344 178.910156 202.460938 175.886719 194.539062 L 181.554688 140.230469 Z M 141.101562 134.195312 "/>
<path style=" stroke:none;fill-rule:nonzero;fill:rgb(18.431373%,18.039216%,25.490196%);fill-opacity:1;" d="M 161.519531 234.894531 L 152.066406 252.242188 C 152.066406 252.242188 138.457031 262.046875 147.910156 263.554688 C 157.359375 265.066406 163.03125 261.292969 163.03125 261.292969 L 171.347656 255.257812 L 171.347656 237.910156 Z M 161.519531 234.894531 "/>
<path style=" stroke:none;fill-rule:nonzero;fill:rgb(18.431373%,18.039216%,25.490196%);fill-opacity:1;" d="M 148.664062 225.085938 L 153.578125 236.777344 C 153.578125 236.777344 155.46875 241.683594 153.578125 242.8125 C 151.6875 243.945312 146.394531 250.734375 149.796875 251.488281 C 150.484375 251.621094 151.179688 251.691406 151.875 251.695312 C 157.601562 251.789062 163.117188 249.550781 167.148438 245.492188 L 170.214844 242.4375 C 170.214844 242.4375 159.714844 218.320312 159.859375 218.496094 C 160.007812 218.675781 148.664062 225.085938 148.664062 225.085938 Z M 148.664062 225.085938 "/>
<path style=" stroke:none;fill-rule:nonzero;fill:rgb(100%,72.156863%,72.156863%);fill-opacity:1;" d="M 188.738281 39.910156 C 188.738281 46.992188 182.984375 52.734375 175.886719 52.734375 C 168.785156 52.734375 163.03125 46.992188 163.03125 39.910156 C 163.03125 32.828125 168.785156 27.085938 175.886719 27.085938 C 182.984375 27.085938 188.738281 32.828125 188.738281 39.910156 Z M 188.738281 39.910156 "/>
<path style=" stroke:none;fill-rule:nonzero;fill:rgb(54.117647%,16.862745%,88.627451%);fill-opacity:1;" d="M 183.257812 57.824219 L 179.289062 61.785156 C 179.289062 61.785156 167.191406 66.308594 161.519531 61.785156 C 161.519531 61.785156 163.597656 57.449219 163.597656 57.824219 C 163.597656 58.203125 147.152344 60.652344 145.640625 67.441406 C 144.128906 74.230469 146.773438 85.921875 146.773438 85.921875 C 146.773438 85.921875 136.1875 135.703125 140.347656 136.835938 C 144.503906 137.96875 183.445312 147.394531 183.070312 140.230469 C 182.691406 133.066406 186.09375 103.648438 186.09375 103.648438 L 199.324219 78.378906 C 199.324219 78.378906 197.4375 70.082031 192.898438 67.441406 C 188.363281 64.800781 183.257812 57.824219 183.257812 57.824219 Z M 183.257812 57.824219 "/>
<path style=" stroke:none;fill-rule:nonzero;fill:rgb(100%,72.156863%,72.156863%);fill-opacity:1;" d="M 166.433594 131.554688 L 161.519531 134.574219 C 161.519531 134.574219 142.613281 147.394531 152.445312 149.660156 C 162.273438 151.921875 167.945312 140.609375 167.945312 140.609375 L 171.726562 136.082031 Z M 166.433594 131.554688 "/>
<use xlink:href="#surface29" mask="url(#mask8)"/>
<path style=" stroke:none;fill-rule:nonzero;fill:rgb(54.117647%,16.862745%,88.627451%);fill-opacity:1;" d="M 195.921875 74.984375 L 199.324219 78.378906 C 199.324219 78.378906 201.59375 110.058594 197.058594 116.46875 C 192.519531 122.882812 171.726562 140.230469 170.59375 139.097656 C 169.457031 137.96875 162.273438 132.308594 163.789062 131.554688 C 165.300781 130.800781 185.40625 109.84375 185.40625 109.84375 L 183.824219 80.640625 Z M 195.921875 74.984375 "/>
<path style=" stroke:none;fill-rule:nonzero;fill:rgb(18.431373%,18.039216%,25.490196%);fill-opacity:1;" d="M 170.570312 21.695312 C 170.570312 21.695312 166.199219 20.113281 160.242188 23.480469 L 163.417969 24.273438 C 163.417969 24.273438 158.652344 24.667969 158.054688 31.007812 L 160.242188 31.007812 C 160.242188 31.007812 158.851562 36.554688 160.242188 38.140625 L 161.136719 36.457031 L 163.71875 41.609375 L 164.3125 39.03125 L 165.503906 39.429688 L 166.300781 35.269531 C 166.300781 35.269531 168.285156 38.238281 169.875 38.4375 L 169.875 35.863281 C 169.875 35.863281 174.242188 40.816406 175.632812 40.617188 L 173.648438 37.84375 L 176.429688 38.4375 L 175.238281 36.457031 L 182.386719 38.4375 L 180.796875 36.457031 L 185.761719 38.042969 L 188.148438 39.03125 C 188.148438 39.03125 191.523438 31.304688 186.757812 25.957031 C 181.988281 20.605469 175.039062 19.417969 170.570312 21.695312 Z M 170.570312 21.695312 "/>
</g>
</svg>
